<svg xmlns="http://www.w3.org/2000/svg" width="667.893" height="120" viewBox="0 0 667.893 120"><g transform="translate(-626.607 -206.608)"><rect width="667" height="119" rx="59.5" transform="translate(627 207.108)" fill="#fff"/><path d="M59.5-.5v1a59.623,59.623,0,0,0-9.767.8L49.568.318A60.61,60.61,0,0,1,59.5-.5Zm0,0h10v1h-10Zm20,0h10v1h-10Zm20,0h10v1h-10Zm20,0h10v1h-10Zm20,0h10v1h-10Zm20,0h10v1h-10Zm20,0h10v1h-10Zm20,0h10v1h-10Zm20,0h10v1h-10Zm20,0h10v1h-10Zm20,0h10v1h-10Zm20,0h10v1h-10Zm20,0h10v1h-10Zm20,0h10v1h-10Zm20,0h10v1h-10Zm20,0h10v1h-10Zm20,0h10v1h-10Zm20,0h10v1h-10Zm20,0h10v1h-10Zm20,0h10v1h-10Zm20,0h10v1h-10Zm20,0h10v1h-10Zm20,0h10v1h-10Zm20,0h10v1h-10Zm20,0h10v1h-10Zm20,0h10v1h-10Zm20,0h10v1h-10Zm20,0h8c.67,0,1.349.011,2.017.033l-.033,1C608.827.511,608.159.5,607.5.5h-8ZM619.521.7a59.737,59.737,0,0,1,9.666,2.835l-.362.932a58.727,58.727,0,0,0-9.5-2.787ZM39.808,2.806l.328.945a58.854,58.854,0,0,0-9.048,4.028L30.606,6.9A59.854,59.854,0,0,1,39.808,2.806ZM638.237,7.96a60.354,60.354,0,0,1,8.182,5.873l-.649.761a59.333,59.333,0,0,0-8.047-5.776ZM22.221,12.483l.622.783a59.53,59.53,0,0,0-7.216,6.785l-.743-.669A60.52,60.52,0,0,1,22.221,12.483Zm631.288,8.5a60.331,60.331,0,0,1,5.8,8.234l-.863.505a59.324,59.324,0,0,0-5.7-8.1ZM8.8,27.407l.844.536a59,59,0,0,0-4.583,8.78l-.922-.386A60,60,0,0,1,8.8,27.407Zm654.855,10.9A59.742,59.742,0,0,1,666.4,48l-.982.191a58.748,58.748,0,0,0-2.7-9.528ZM1.043,45.922l.974.225A59.167,59.167,0,0,0,.6,55.951l-1-.059A60.163,60.163,0,0,1,1.043,45.922ZM667.482,58.015c.012.492.018.992.018,1.485a60.735,60.735,0,0,1-.607,8.57l-.99-.142a59.735,59.735,0,0,0,.6-8.428c0-.485-.006-.977-.018-1.461ZM.838,65.855a58.923,58.923,0,0,0,1.879,9.724l-.962.272A59.929,59.929,0,0,1-.156,65.962Zm662.84,11.724.952.306a59.807,59.807,0,0,1-3.883,9.294l-.887-.462A58.805,58.805,0,0,0,663.679,77.579ZM6.207,84.848a59.124,59.124,0,0,0,5,8.551l-.818.575a60.128,60.128,0,0,1-5.082-8.7ZM654.564,95.086l.8.6a60.512,60.512,0,0,1-6.73,7.494l-.686-.728A59.518,59.518,0,0,0,654.564,95.086Zm-637,5.91a59.494,59.494,0,0,0,7.53,6.435l-.584.812a60.487,60.487,0,0,1-7.657-6.543Zm622.634,7.625.555.832a60.058,60.058,0,0,1-8.82,4.865l-.408-.913A59.061,59.061,0,0,0,640.193,108.621Zm-606.607,3.9a58.771,58.771,0,0,0,9.23,3.589l-.282.959a59.768,59.768,0,0,1-9.388-3.65Zm588.582,4.143.248.969a60.037,60.037,0,0,1-9.934,1.665l-.082-1A59.036,59.036,0,0,0,622.169,116.662ZM52.52,118.091a59.851,59.851,0,0,0,6.98.409h2.947v1H59.5a60.868,60.868,0,0,1-7.1-.415Zm19.926.409h10v1h-10Zm20,0h10v1h-10Zm20,0h10v1h-10Zm20,0h10v1h-10Zm20,0h10v1h-10Zm20,0h10v1h-10Zm20,0h10v1h-10Zm20,0h10v1h-10Zm20,0h10v1h-10Zm20,0h10v1h-10Zm20,0h10v1h-10Zm20,0h10v1h-10Zm20,0h10v1h-10Zm20,0h10v1h-10Zm20,0h10v1h-10Zm20,0h10v1h-10Zm20,0h10v1h-10Zm20,0h10v1h-10Zm20,0h10v1h-10Zm20,0h10v1h-10Zm20,0h10v1h-10Zm20,0h10v1h-10Zm20,0h10v1h-10Zm20,0h10v1h-10Zm20,0h10v1h-10Zm20,0h10v1h-10Zm20,0h10v1h-10Z" transform="translate(627 207.108)" fill="red"/></g></svg>