<svg xmlns="http://www.w3.org/2000/svg" preserveAspectRatio="none" width="602" height="602" viewBox="0 0 602 602"><path d="M30-1V1a29.042,29.042,0,0,0-8.125,1.153L21.315.233A31.039,31.039,0,0,1,30-1Zm0,0H40V1H30ZM50-1H60V1H50ZM70-1H80V1H70ZM90-1h10V1H90Zm20,0h10V1H110Zm20,0h10V1H130Zm20,0h10V1H150Zm20,0h10V1H170Zm20,0h10V1H190Zm20,0h10V1H210Zm20,0h10V1H230Zm20,0h10V1H250Zm20,0h10V1H270Zm20,0h10V1H290Zm20,0h10V1H310Zm20,0h10V1H330Zm20,0h10V1H350Zm20,0h10V1H370Zm20,0h10V1H390Zm20,0h10V1H410Zm20,0h10V1H430Zm20,0h10V1H450Zm20,0h10V1H470Zm20,0h10V1H490Zm20,0h10V1H510Zm20,0h10V1H530Zm20,0h10V1H550Zm20,0A30.939,30.939,0,0,1,580.145.7l-.654,1.89A28.941,28.941,0,0,0,570,1ZM12.057,4.717l1.159,1.63A29.088,29.088,0,0,0,6.4,13.142L4.774,11.978A31.089,31.089,0,0,1,12.057,4.717Zm577.111.918a31.079,31.079,0,0,1,6.918,7.61L594.4,14.328a29.081,29.081,0,0,0-6.474-7.121ZM.261,21.222l1.918.565A29.034,29.034,0,0,0,1,30v1.388H-1V30A31.033,31.033,0,0,1,.261,21.222ZM600.136,22.7A31.14,31.14,0,0,1,601,30v2.871h-2V30a29.138,29.138,0,0,0-.808-6.829ZM-1,41.388H1v10H-1Zm600,1.482h2v10h-2ZM-1,61.388H1v10H-1Zm600,1.482h2v10h-2ZM-1,81.388H1v10H-1Zm600,1.482h2v10h-2ZM-1,101.388H1v10H-1Zm600,1.482h2v10h-2ZM-1,121.388H1v10H-1Zm600,1.482h2v10h-2ZM-1,141.388H1v10H-1Zm600,1.482h2v10h-2ZM-1,161.388H1v10H-1Zm600,1.482h2v10h-2ZM-1,181.388H1v10H-1Zm600,1.482h2v10h-2ZM-1,201.388H1v10H-1Zm600,1.482h2v10h-2ZM-1,221.388H1v10H-1Zm600,1.482h2v10h-2ZM-1,241.388H1v10H-1Zm600,1.482h2v10h-2ZM-1,261.388H1v10H-1Zm600,1.482h2v10h-2ZM-1,281.388H1v10H-1Zm600,1.482h2v10h-2ZM-1,301.388H1v10H-1Zm600,1.482h2v10h-2ZM-1,321.388H1v10H-1Zm600,1.482h2v10h-2ZM-1,341.388H1v10H-1Zm600,1.482h2v10h-2ZM-1,361.388H1v10H-1Zm600,1.482h2v10h-2ZM-1,381.388H1v10H-1Zm600,1.482h2v10h-2ZM-1,401.388H1v10H-1Zm600,1.482h2v10h-2ZM-1,421.388H1v10H-1Zm600,1.482h2v10h-2ZM-1,441.388H1v10H-1Zm600,1.482h2v10h-2ZM-1,461.388H1v10H-1Zm600,1.482h2v10h-2ZM-1,481.388H1v10H-1Zm600,1.482h2v10h-2ZM-1,501.388H1v10H-1Zm600,1.482h2v10h-2ZM-1,521.388H1v10H-1Zm600,1.482h2v10h-2ZM-1,541.388H1v10H-1Zm600,1.482h2v10h-2ZM-1,561.388H1V570c0,.446.01.9.031,1.342l-2,.091C-.989,570.959-1,570.477-1,570Zm600,1.482h2V570c0,.987-.047,1.984-.14,2.961l-1.991-.189c.087-.915.131-1.848.131-2.772ZM3.056,580.747a28.924,28.924,0,0,0,5,8.218l-1.513,1.309A30.922,30.922,0,0,1,1.2,581.489Zm593.323,1.317,1.818.833a30.976,30.976,0,0,1-5.776,8.51l-1.446-1.381A28.979,28.979,0,0,0,596.379,582.064ZM15.472,595.1a28.755,28.755,0,0,0,9.009,3.371L24.1,600.44a30.751,30.751,0,0,1-9.635-3.605Zm567.8.688.917,1.778a30.749,30.749,0,0,1-9.8,3.122l-.28-1.98A28.752,28.752,0,0,0,583.271,595.792ZM34.259,599h10v2h-10Zm20,0h10v2h-10Zm20,0h10v2h-10Zm20,0h10v2h-10Zm20,0h10v2h-10Zm20,0h10v2h-10Zm20,0h10v2h-10Zm20,0h10v2h-10Zm20,0h10v2h-10Zm20,0h10v2h-10Zm20,0h10v2h-10Zm20,0h10v2h-10Zm20,0h10v2h-10Zm20,0h10v2h-10Zm20,0h10v2h-10Zm20,0h10v2h-10Zm20,0h10v2h-10Zm20,0h10v2h-10Zm20,0h10v2h-10Zm20,0h10v2h-10Zm20,0h10v2h-10Zm20,0h10v2h-10Zm20,0h10v2h-10Zm20,0h10v2h-10Zm20,0h10v2h-10Zm20,0h10v2h-10Zm20,0h10v2h-10Z" transform="translate(1 1)" fill="red"/></svg>