<svg xmlns="http://www.w3.org/2000/svg" width="55.216" height="84.581" viewBox="0 0 55.216 84.581"><g transform="translate(0 931)"><path d="M34.138,183.41a38.2,38.2,0,0,1-.763,5.946c-.607,2.525-4.646,17.776-4.949,18.81s-3.78,16.218-3.539,17.272,1.109-.017,1.109-.017l5.9-24.615s1.3-7.935,2.653-9.973,4.962-.242,4.962-.242Z" transform="translate(-19.166 -1072.322)" fill="#abca4c"/><path d="M21.662,39.858a1.947,1.947,0,0,0,2.426.264c2.792-1.784,9.165-5.913,10.587-7.321C36.509,30.984,44.342,22.479,45,21.031a2.009,2.009,0,0,0,.188-1,1.918,1.918,0,0,0-1.432-1.681,14.181,14.181,0,0,1-2.608-.906,28.254,28.254,0,0,1-4.5-4.577c-.255-.54-1.438-1.107-1.92-1.328S32.58,7.36,32.786,6.549,28.443,1.193,25.038.373,19.827.24,18.795.921s-3.163,1.91-4.8,3.186c-.755.586-3.533,5.32-4.269,6.586a1.948,1.948,0,0,0-.238.668c-.307,1.9-1.666,10.829-.608,13.8.971,2.725,9.667,11.579,12.788,14.7" transform="translate(-6.533 -931)" fill="#8fc2e9"/><path d="M76.133,113.587a.84.84,0,0,1,.4-.85c2.182-1.29,10.959-6.5,11.587-7.225.718-.827,4.5-5.291,5.094-5.838s1.743.114,3.34-1.143c1.294-1.018,3.629-3.021,4.47-3.745a.84.84,0,0,1,.717-.186l.738.151a.839.839,0,0,0,.808-.278c.571-.672,1.776-2.01,2.388-2.112.82-.137,2.953,1.641,3.254,2.25a3.809,3.809,0,0,1,.541,1.816c-.015.667,1.27,1.235,1.394,2.113s.658,1.84-.107,2.9,1.074,3.083,1.376,3.388a1.078,1.078,0,0,1,.239.382.818.818,0,0,1,0,.568c-.235.636-.879,2.513-.645,3.33a2.145,2.145,0,0,0,1.312,1.325s1.379.4.584,5.276-2.758,12.468-3.408,13.066-4.366,3.848-7.213,4.288c-6.2.958-4.961.522-7,.6a7.516,7.516,0,0,1-5.761-2.372L76.8,116.967a.84.84,0,0,1-.218-.449Z" transform="translate(-58.655 -1002.16)" fill="#8fc2e9"/><path d="M85.377,139.7c.263,1.3.756,3.744,2.612,4.494,1.759.711,3.649-.538,3.923-.718,3.008-1.987,2.688-6.3,2.653-6.7-.056-.627-.349-3.914-2.912-5.408a5.026,5.026,0,0,0-3.4-.636,3.759,3.759,0,0,0-2.405,1.334c-.481.667-.477,1.3-.484,3.251a43.614,43.614,0,0,0,.014,4.388" transform="translate(-65.759 -1031.668)" fill="#ffe000"/><path d="M7.793,17.965a.213.213,0,0,0-.01-.333.207.207,0,0,0-.2-.02A7.876,7.876,0,0,0,4.02,20.221C3.032,21.773,1.628,22.289.057,31.955-.161,33.3.3,36.508.534,38.57A21.907,21.907,0,0,0,2.2,46.695c1.164,2.747,8.017,7.2,10.342,9.974a15.57,15.57,0,0,1,1.37,1.563l.008.015c.159.289,5.036,9.169,7.326,11.669a28.469,28.469,0,0,0,7.276,5.51A24.014,24.014,0,0,0,36,76.96a53.433,53.433,0,0,0,7.78-1.411c.21-.054.105-.518-.111-.536,0,0-1.41-.106-1.878-.156-1.19-.126-5.936.276-6.99-.291-2.374-1.277-4-6.044-5.759-8.772a1.477,1.477,0,0,0-.651-.554c-1.549-.674-4.047-.957-5.25-1.605a5.435,5.435,0,0,1-2.368-2.86c-.233-1.269.664-3.464,1.25-4.464a5.523,5.523,0,0,0,1.2-3.165c.262-2.169-.81-3.181-1.9-4.409a13.9,13.9,0,0,0-6.577-4.758C10.469,42.25,7.571,42.448,4.319,36.3,1.4,30.79,5.738,21.052,6.825,19.009a2.229,2.229,0,0,1,.5-.627Z" transform="translate(0 -944.558)" fill="#005ca9"/></g></svg>