<svg xmlns="http://www.w3.org/2000/svg" xmlns:xlink="http://www.w3.org/1999/xlink" width="208.759" height="286.177" viewBox="0 0 208.759 286.177"><defs><clipPath id="a"><rect width="181.672" height="268.659" fill="none"/></clipPath></defs><g transform="matrix(0.995, -0.105, 0.105, 0.995, 0, 18.99)"><g clip-path="url(#a)"><path d="M208.064,295.5c.021,1.9,5.235,3.089,8.8,7.788,2.9,3.821,4.274,5.754,5.128,8.61,7.248,24.266,6.916,18.153,10.207,34.393a298.685,298.685,0,0,1,6.047,43.535c2.027,32.773-2.727,56.123-3.193,58.918-.29,1.742,2.338,2.584,2.709.58a266.609,266.609,0,0,0,3.386-62.836c-.7-11.129-2.493-17.85-4.5-27.573-4.959-24.042-9.358-39-12.383-47.067-1.306-3.483-2.322-4.257-3.29-10.4-.874-5.549,2.558-8.409,1.016-10.158-2.7-3.062-13.966,1.087-13.931,4.208" transform="translate(-130.356 -181.826)" fill="#1b7526"/><path d="M59.568,177.784c-2.726,2-6.332,3.657-7.836,7.691-.474,1.272-.977,3.42-2.9,4.644a4.641,4.641,0,0,1-3.338.726c-1.686-.381-2.341-1.891-3.483-3.193-1.725-1.966-3.8-2.589-7.256-3.628-6.378-1.916-8.5.632-17.559-.58-4.952-.663-6.5-1.716-7.111-2.177-2.647-2-3.55-4.848-4.643-9-2.336-8.863-3.5-13.3-4.063-19.881-.664-7.824-2.65-12.014-.145-15.528a7.429,7.429,0,0,0,2.177-2.322c4.257-7.159,5.333-6.93,6.482-8.61,2.024-2.961,1.982-3.515,3.241-8.369,1.748-6.733,5.434-10.969,10.158-16.4,3.6-4.137,7.151-8.122,10.594-7.4a8.676,8.676,0,0,0,4.063.049c1.985-.522,1.451-1.935,3.193-3.677A28.212,28.212,0,0,1,51.3,83.313c7.46-2.6,10.448-2.564,21.478,1.016,3.547,1.151,7.74.5,11.464.29,2.64-.147,3.053-.177,3.918-.145,4.892.18,6.493,1.686,10.449,2.467,4.3.849,3.993-.614,11.755-.29,4.579.191,6.917.315,9.287,1.741a14.468,14.468,0,0,1,5.514,6.821c2.408,5.174,1.8,9.974,1.451,12.77-.372,2.945-.716,5.678-2.612,8.271a14.79,14.79,0,0,1-7.691,5.079c-16.7,5.458-43.929,47.067-56.741,56.451" transform="translate(0 -51.053)" fill="#e4403f"/><path d="M177.369,228.7c-1.249-1.582-5.867.214-7.8,1.225-7.6,3.971-7.622,13.468-7.61,14.254.031,2.112.048,3.314.774,3.676,3.283,1.641,17.32-15.762,14.641-19.155" transform="translate(-101.467 -142.896)"/><path d="M130.459,218.116a9.886,9.886,0,0,0-6-.58c-3.224.8-4,3.13-8.707,7.74-3.934,3.855-6.457,6.262-10.255,6.772a16.628,16.628,0,0,1-5.611-.387c-1.544-.326-2.507-.72-6.578-2.515-6.769-2.984-6.634-3.01-7.353-3.16-4.247-.886-8.031-.415-9.223-1.967-.785-1.021-.743-1.4.065-2.354,1.063-1.251,4.517-1.093,7.223-1.354,2.245-.217,3.969-1.069,7.417-2.773a89.376,89.376,0,0,0,13.48-8.578c8.755-6.41,13.157-9.658,14.383-11.8,1.424-2.491,4.009-7.014,4.192-12.577a15.032,15.032,0,0,1,.581-4.515,13.59,13.59,0,0,1,4.579-6.708c2.136-1.622,4.5-2.049,9.223-2.9,4.79-.866,4.99-.291,7.288-1.1,4.306-1.508,4.5-3.839,8.191-5.8,6.021-3.209,14.091-1.576,14.834.838.353,1.148-1.12,1.916-2.322,6a26.5,26.5,0,0,0-.71,3.29,51.376,51.376,0,0,0-.838,11.609c.117,7.049-5.2,15.8-10,20.962-8.84,9.509-20.156,11.407-23.864,11.867" transform="translate(-47.721 -101.349)" fill="#990b0e"/><path d="M315.9,133.524c.659,6.642-14.633,190.817-14.252,202.324.049,1.477.546,2.432,1.286,2.348.94-.107,1.333-.232,1.4-1.155,1.1-16.147,13.6-199.881,14.354-202.662,1.31-4.819,3.15-8.717,6.227-10.695s-14.211-1.319-14.211-1.319,4.781,6.925,5.2,11.158" transform="translate(-188.985 -76.598)" fill="#1b7526"/><path d="M308.077,35.927a22.663,22.663,0,0,1-30.274.483c-7.565-6.564-15-13.534-14.585-15.236.836-3.414,10.115-7.907,12.557-8.59s11.232-2.344,13.186-3.418,5.274-6.251,8.009-7.13S299.9.277,302.342.081s20.316-.1,21.878.977,4.4,2.344,4.59,3.711-.987,9.339-2.588,11.867c-2.983,4.712-10.84,12.507-18.146,19.29" transform="translate(-164.901 0)" fill="#e4403f"/><path d="M275.937,66.25s-24.631,5.39-41.315-22.415c-5.494-9.157,20.729-11.746,37.14-11.208,8.937.293,11.208-9.23,18.46-10.988s33.4,10.769,33.4,10.769,3.956,1.758,1.1,5.274-20.438,17.8-26.152,19.339-4.176,3.516-13.405,7.033-9.23,2.2-9.23,2.2" transform="translate(-146.53 -13.451)" fill="#990b0e"/><path d="M353.344,248.607s2.287-7.559.2-11.322-5.285-6.171-6.759-6.381-4.725.877-4.725.877a27.854,27.854,0,0,0-15.511-9.2,22.485,22.485,0,0,0-6.594-.312,16.1,16.1,0,0,0-12.681,12.091c-3.418,15.139-7.4,30.894-10.816,46.033-2.2,9.73-18.393,110.3-20.59,120.026l2.28-.941c2.161-9.313,17.772-100.98,19.594-110.905,3.476-14.982,8.4-38.452,11.878-53.434.33-1.057,2.677-7.928,9.194-10.291a15.671,15.671,0,0,1,8.729.026,28.336,28.336,0,0,1,12.988,8.891,22.419,22.419,0,0,0-.949,4.276,17.809,17.809,0,0,0,1.962,6.51,23.319,23.319,0,0,0,4.5,4.95,36.262,36.262,0,0,0,3.641,1.9l1.438,1.446s1.263.983,1.748.9a2.91,2.91,0,0,0,1.62-1.677c.2-.889-1.145-3.464-1.145-3.464" transform="translate(-172.838 -139.169)" fill="#1b7526"/><path d="M224.987,522.654s5.728,1.875,8.392,5.62c2.388,3.357,10.037,17.387,11.594,20.254a8.463,8.463,0,0,1,.483,1.058l12.217,32.38a1.062,1.062,0,0,0,1.26.759,1.046,1.046,0,0,0,.732-.995c-7.6-16.231-10.746-31.541-19.68-48.092,0,0-1.969-2.83,3.013-11.825.835-1.508.764-2.471.5-2.909-.858-1.451-5.357-1.221-18.514,3.75" transform="translate(-140.959 -324.617)" fill="#1b7526"/><path d="M109.474,415.141a1.072,1.072,0,0,0-1.545-1.416,8.707,8.707,0,0,0-1.393,1.293,29.787,29.787,0,0,0-5.389,9.356c-.345,1.583,1.64,4.016,2.442,5.031s13.272,9.747,24.941,12.525c10.8,2.571,25.693,4.71,27.838,4.394,4.834-.714,7.574-3.081,10.9-6.18,3.746-3.494,8.984-9.139,10.546-12.949s7.209-16.552,7.141-19.831.667-12.953-.8-15.833c-1.3-2.549-10.272-3.382-12.317-3.54a1.065,1.065,0,0,0-.739.224l-34.119,26.624a1.072,1.072,0,0,1-.46.208l-23.367,4.418a1.073,1.073,0,0,1-.983-.322l-2.549-2.732a1.072,1.072,0,0,1-.143-1.27" transform="translate(-63.345 -243.082)" fill="#990b0e"/><path d="M189.723,389.1c-3.2,4.723-11.632,14.917-21.7,21.448.584-.582,1.16-1.164,1.733-1.73a3.109,3.109,0,0,0,.765-3.671c-.819-2.258-4.512-2.711-4.891-2.755-2.588-.287-6.126,1.831-13.1,6.077a10.5,10.5,0,0,0-1.953,1.56c-.683.692-2.78,2.813-2.286,4.628a3.529,3.529,0,0,0,2.17,2.03c-15.369,2.269-33.851.261-36.384-1.973-3.444-3.041-2.128-10.378,3.8-15.68,3.986-3.562,14.544-6.881,20.234-9.273,2.914-1.225,5.058-4.827,4.15-7.945-.007-.025.021-.055.011-.081-.915-2.5-.448-3.106,2.954-5.51,4.787-3.383,14.359-10.56,28.728-8.248,13.679,2.2,16.691,10.323,17.241,15.163a8.855,8.855,0,0,1-1.478,5.96" transform="translate(-70.297 -230.265)" fill="#e4403f"/><path d="M230.173,467.264c-.573.566-1.148,1.148-1.733,1.73-1,.651-2.022,1.266-3.054,1.835-3.837,2.116-8.969,3.488-14.506,4.3a3.532,3.532,0,0,1-2.17-2.031c-.494-1.816,1.6-3.937,2.286-4.629a10.5,10.5,0,0,1,1.953-1.56c6.971-4.246,10.509-6.364,13.1-6.077.379.043,4.072.5,4.891,2.755a3.108,3.108,0,0,1-.765,3.671" transform="translate(-130.715 -288.708)"/></g></g></svg>